<svg xmlns="http://www.w3.org/2000/svg" viewBox="0 0 120 60" width="120" height="60"><path fill="#fff" d="M40.012 41.753V18.708h1.25v3.625a5 5 0 0 0 .41-.51 6.2 6.2 0 0 1 5.65-3.507c2.851-.085 5.166.97 6.527 3.506a11.27 11.27 0 0 1 .273 10.332c-1.268 2.842-4.4 4.255-7.753 3.736a6.27 6.27 0 0 1-5.004-3.302v9.165Zm1.25-14.892c.111 1.123.154 1.923.282 2.706.493 3.08 2.314 4.91 5.174 5.242a5.88 5.88 0 0 0 6.46-3.736 10.02 10.02 0 0 0-.222-8.238 5.76 5.76 0 0 0-6.068-3.353 5.61 5.61 0 0 0-5.012 4.145 28 28 0 0 0-.613 3.234m39.496 3.131a6.74 6.74 0 0 1-6.587 5.957c-5.242.264-7.702-3.216-8.093-7.233a11.57 11.57 0 0 1 1.02-6.383 7.12 7.12 0 0 1 7.413-3.974 6.81 6.81 0 0 1 6.042 5.183 35 35 0 0 1 .588 3.83H67.364c-.256 3.642 1.702 6.569 4.476 7.275 3.455.851 6.408-.646 7.48-3.931.239-.843.673-.962 1.439-.724m-13.395-3.787h12.314c-.077-3.88-2.494-6.689-5.77-6.731-3.71-.06-6.383 2.646-6.544 6.731m15.93 3.872h1.21a4.84 4.84 0 0 0 2.842 4.17 7.43 7.43 0 0 0 6.45-.17 2.9 2.9 0 0 0 1.702-2.85 2.63 2.63 0 0 0-1.77-2.63c-1.327-.494-2.74-.766-4.093-1.2a30 30 0 0 1-4.12-1.507c-2.178-1.063-2.314-5.208.154-6.518a8.69 8.69 0 0 1 8.306-.128 4.37 4.37 0 0 1 2.213 4.46h-1.039c0-.052-.093-.094-.093-.145-.128-3.31-2.902-4.332-5.88-4.043a7.8 7.8 0 0 0-2.554.775 2.55 2.55 0 0 0-1.48 2.553 2.55 2.55 0 0 0 1.701 2.4c1.311.476 2.681.783 4.026 1.157 1.08.298 2.204.494 3.25.851a3.84 3.84 0 0 1 2.639 3.464 4.09 4.09 0 0 1-2.204 4.255c-2.843 1.608-7.523 1.183-9.608-.851a5.68 5.68 0 0 1-1.651-4.043m28.781-6.374h-1.132c0-.153-.06-.29-.076-.417a3.7 3.7 0 0 0-3.013-3.557 7.43 7.43 0 0 0-4.774.23 2.9 2.9 0 0 0-2.102 2.766 2.67 2.67 0 0 0 2.042 2.689c1.702.527 3.447.85 5.175 1.327a15 15 0 0 1 1.65.502 4.255 4.255 0 0 1 .23 7.923 9.47 9.47 0 0 1-7.659.077 5.31 5.31 0 0 1-3.2-5.157h1.107a6.204 6.204 0 0 0 9.446 3.949 3.04 3.04 0 0 0 1.634-2.843 2.63 2.63 0 0 0-1.796-2.612c-1.327-.494-2.74-.758-4.093-1.192a30 30 0 0 1-4.145-1.49c-2.127-1.046-2.297-5.156.128-6.467a8.57 8.57 0 0 1 8.442-.093 4.45 4.45 0 0 1 2.136 4.365m-74.132 11.83a1.95 1.95 0 0 1-2.417-.92c-1.387-2.076-2.919-4.059-4.391-6.084l-.639-.851c-1.753 2.348-3.506 4.604-5.106 6.944a1.87 1.87 0 0 1-2.297.902l6.578-8.825-6.119-7.974a2.034 2.034 0 0 1 2.426.85c1.42 2.077 2.995 4.06 4.561 6.162 1.574-2.085 3.132-4.076 4.587-6.136a1.83 1.83 0 0 1 2.28-.85l-2.374 3.148c-1.063 1.404-2.11 2.817-3.216 4.187a.85.85 0 0 0 0 1.268c2.033 2.698 4.05 5.404 6.127 8.178m27.93-16.892v1.191a6.17 6.17 0 0 0-6.57 6.374v9.361h-1.216V18.708h1.19v3.455c1.473-2.52 3.745-3.455 6.596-3.523M7.333 26.588c.178-.85.289-1.778.536-2.646 1.472-5.234 7.472-7.413 11.6-4.17 2.416 1.897 3.02 4.587 2.901 7.616H8.754c-.221 5.413 3.685 8.68 8.68 7.013a5.18 5.18 0 0 0 3.294-3.668c.264-.851.69-.996 1.498-.75a6.91 6.91 0 0 1-3.302 5.047 8 8 0 0 1-9.32-1.191 8.4 8.4 0 0 1-2.093-4.919c0-.29-.11-.579-.17-.851q-.008-.757-.008-1.48m1.438-.367h12.314c-.076-3.923-2.553-6.706-5.855-6.731-3.676-.051-6.306 2.672-6.468 6.714Z"/></svg>